<svg width="536" height="169" viewBox="0 0 536 169" fill="none" xmlns="http://www.w3.org/2000/svg">
<path d="M154.235 119.782C153.481 117.668 152.601 115.622 151.764 113.727C150.475 110.812 149.125 107.891 147.819 105.068L147.716 104.844C136.07 79.6245 123.57 54.0601 110.564 28.8616L110.012 27.7917C108.685 25.2185 107.314 22.5579 105.906 19.9436C104.237 16.6352 102.212 13.5181 99.8664 10.6476C97.2259 7.49759 93.9251 4.96421 90.1971 3.22607C86.4691 1.48794 82.4041 0.587374 78.2893 0.587891C74.1744 0.588408 70.11 1.48999 66.382 3.22906C62.6545 4.96814 59.3542 7.50237 56.7148 10.653C54.3718 13.5242 52.3477 16.6406 50.6781 19.9474C49.2583 22.5851 47.8739 25.2704 46.5353 27.8673L46.0226 28.8614C33.0163 54.0617 20.5165 79.6261 8.87075 104.844L8.70107 105.21C7.41792 107.988 6.09125 110.86 4.82376 113.726C3.98618 115.62 3.10716 117.664 2.35319 119.783C0.193703 125.557 -0.49443 131.776 0.350651 137.881C1.24684 144.05 3.74222 149.88 7.58965 154.791C11.4371 159.702 16.5031 163.524 22.2859 165.88C26.6537 167.647 31.324 168.55 36.037 168.54C37.5175 168.539 38.9968 168.453 40.4674 168.282C46.4282 167.523 52.1772 165.583 57.3771 162.577C64.1981 158.745 70.9345 153.129 78.2935 145.104C85.6524 153.129 92.3888 158.745 99.2098 162.577C104.409 165.583 110.159 167.523 116.119 168.282C117.59 168.453 119.07 168.539 120.55 168.54C125.263 168.55 129.932 167.647 134.3 165.88C140.083 163.524 145.149 159.702 148.997 154.791C152.845 149.88 155.34 144.051 156.237 137.881C157.081 131.775 156.393 125.556 154.235 119.782ZM78.2935 128.531C69.1836 116.983 63.3379 106.26 61.2867 97.2705C60.4465 93.902 60.2481 90.406 60.7021 86.9641C61.0605 84.4411 61.9874 82.032 63.4129 79.9179C65.167 77.6432 67.4212 75.801 70.0014 74.5335C72.5815 73.2665 75.4189 72.6073 78.2945 72.6073C81.1707 72.6078 84.0075 73.267 86.5877 74.5351C89.1678 75.8026 91.4215 77.6448 93.1756 79.9195C94.6011 82.0347 95.528 84.4437 95.8864 86.9672C96.3394 90.4107 96.1405 93.9078 95.2986 97.2774C93.2454 106.266 87.4012 116.986 78.2935 128.531ZM145.597 136.361C144.97 140.675 143.225 144.751 140.535 148.184C137.845 151.618 134.302 154.291 130.259 155.938C126.17 157.576 121.733 158.157 117.36 157.626C112.814 157.04 108.434 155.544 104.481 153.227C98.4099 149.816 92.2639 144.579 85.348 136.898C96.3578 123.322 103.233 110.809 105.778 99.6639C106.924 94.9769 107.172 90.1163 106.51 85.3381C105.91 81.2217 104.382 77.2947 102.041 73.8533C99.2985 70.1405 95.7211 67.1221 91.5968 65.0421C87.472 62.9621 82.9158 61.8783 78.2945 61.8783C73.6737 61.8783 69.117 62.9616 64.9922 65.0411C60.8674 67.1205 57.29 70.1384 54.5477 73.8512C52.2072 77.2916 50.6791 81.2175 50.0781 85.3328C49.4159 90.1095 49.6629 94.9675 50.8061 99.6528C53.35 110.803 60.2255 123.319 71.239 136.899C64.323 144.579 58.177 149.816 52.1055 153.227C48.1533 155.544 43.7729 157.04 39.227 157.626C34.8535 158.157 30.4164 157.576 26.3275 155.938C22.2841 154.291 18.742 151.618 16.0519 148.185C13.3619 144.751 11.6173 140.675 10.9909 136.361C10.3885 131.976 10.9012 127.51 12.4819 123.374C13.0827 121.686 13.7859 120.028 14.657 118.059C15.8893 115.273 17.1971 112.441 18.4621 109.703L18.632 109.335C30.2126 84.259 42.6431 58.8368 55.5785 33.7738L56.0934 32.7761C57.4102 30.221 58.7722 27.5792 60.1462 25.0265C61.4605 22.3955 63.0513 19.9114 64.8919 17.6161C66.5227 15.646 68.5696 14.0598 70.8857 12.9709C73.2024 11.8819 75.7311 11.3172 78.2914 11.317C80.8516 11.3168 83.3808 11.8811 85.697 12.9697C88.0137 14.0582 90.0606 15.6441 91.6918 17.614C93.5335 19.9075 95.1249 22.3907 96.4381 25.0217C97.7995 27.5516 99.1494 30.1697 100.455 32.7013L101.008 33.775C113.943 58.8352 126.373 84.2569 137.955 109.337L138.06 109.563C139.347 112.347 140.677 115.225 141.93 118.06C142.802 120.032 143.507 121.691 144.106 123.373C145.686 127.509 146.199 131.975 145.597 136.361Z" fill="#FF5656"/>
<path d="M218.782 127.179C214.588 127.179 210.73 126.339 207.207 124.657C203.684 122.976 200.665 120.622 197.98 117.596C195.296 114.57 193.283 111.04 191.773 107.173C190.263 103.138 189.592 98.7671 189.592 94.0598C189.592 89.3524 190.431 84.8129 191.94 80.7779C193.45 76.7434 195.631 73.2127 198.316 70.0185C201 66.9922 204.187 64.4703 207.878 62.7892C211.569 61.1081 215.428 60.2673 219.789 60.2673C223.983 60.2673 227.674 61.1081 231.029 62.9571C234.385 64.6388 237.069 67.1601 239.249 70.3544L239.753 62.1168H255.187V125.498H239.753L239.249 116.251C237.069 119.614 234.217 122.304 230.526 124.321C227.171 126.171 223.144 127.179 218.782 127.179ZM222.809 112.048C225.828 112.048 228.513 111.208 231.029 109.695C233.378 108.013 235.223 105.828 236.733 103.138C238.075 100.448 238.746 97.254 238.746 93.7233C238.746 90.1927 238.075 86.9984 236.733 84.3086C235.391 81.6187 233.378 79.4332 231.029 77.7521C228.681 76.0705 225.828 75.3982 222.809 75.3982C219.789 75.3982 217.105 76.239 214.588 77.7521C212.24 79.4332 210.395 81.6187 208.885 84.3086C207.543 86.9984 206.871 90.1927 206.871 93.7233C206.871 97.254 207.543 100.448 208.885 103.138C210.227 105.828 212.24 108.013 214.588 109.695C217.105 111.208 219.789 112.048 222.809 112.048ZM281.526 44.9684C281.526 46.8177 281.19 48.499 280.351 49.8439C279.512 51.1889 278.338 52.3657 276.828 53.2065C275.318 54.0468 273.641 54.3832 271.963 54.3832C270.285 54.3832 268.608 54.0468 267.098 53.2065C265.588 52.3657 264.414 51.1889 263.575 49.8439C262.736 48.3308 262.401 46.8177 262.401 44.9684C262.401 43.1191 262.736 41.4379 263.575 40.0929C264.414 38.5798 265.588 37.5711 267.098 36.7305C268.608 35.8899 270.285 35.5537 271.963 35.5537C273.641 35.5537 275.318 35.8899 276.828 36.7305C278.338 37.5711 279.512 38.748 280.351 40.0929C281.022 41.4379 281.526 42.951 281.526 44.9684ZM263.575 125.33V61.9484H280.351V125.33H263.575ZM325.144 78.5924V78.7604C324.305 78.4245 323.298 78.256 322.459 78.088C321.453 77.9201 320.614 77.9201 319.608 77.9201C314.91 77.9201 311.387 79.2648 309.038 82.1231C306.522 84.9809 305.347 89.0159 305.347 94.2277V125.33H288.572V61.9484H304.005L304.509 71.5316C306.187 68.1689 308.2 65.647 311.052 63.7979C313.736 61.9484 316.923 61.1081 320.614 61.1081C321.788 61.1081 322.963 61.276 323.969 61.444C324.473 61.6125 324.808 61.6125 325.144 61.7804V78.5924ZM331.854 125.33V35.8899H348.63V70.0185C350.979 66.9922 353.663 64.6382 357.018 62.7892C360.374 61.1081 364.065 60.0993 368.259 60.0993C372.452 60.0993 376.311 60.9396 379.834 62.6212C383.357 64.3023 386.376 66.6558 389.061 69.682C391.745 72.7083 393.758 76.239 395.268 80.1056C396.778 84.1406 397.449 88.5116 397.449 93.2189C397.449 97.9263 396.61 102.466 395.101 106.5C393.591 110.535 391.41 114.066 388.725 117.26C386.041 120.287 382.854 122.808 379.163 124.49C375.472 126.171 371.614 127.011 367.252 127.011C363.058 127.011 359.367 126.171 356.012 124.321C352.656 122.64 349.972 120.118 347.792 116.924L347.288 125.162L331.854 125.33ZM364.232 112.048C367.252 112.048 369.936 111.208 372.452 109.695C374.801 108.013 376.646 105.828 378.156 103.138C379.498 100.448 380.17 97.254 380.17 93.7233C380.17 90.1927 379.498 86.9984 378.156 84.3086C376.646 81.6187 374.801 79.4332 372.452 77.7521C370.104 76.0705 367.252 75.3982 364.232 75.3982C361.213 75.3982 358.528 76.239 356.012 77.7521C353.663 79.4332 351.818 81.6187 350.308 84.3086C348.966 86.9984 348.295 90.1927 348.295 93.7233C348.295 97.254 348.966 100.448 350.308 103.138C351.65 105.828 353.663 108.013 356.012 109.695C358.528 111.208 361.213 112.048 364.232 112.048ZM403.824 125.33V61.9484H419.258L419.761 70.1864C421.607 67.1601 424.123 64.8067 427.311 62.9571C430.498 61.1081 434.189 60.2673 438.383 60.2673C443.08 60.2673 447.106 61.444 450.462 63.63C453.985 65.8155 456.669 69.0097 458.515 73.0448C460.36 77.0793 461.366 81.9546 461.366 87.5028V125.498H444.59V89.6883C444.59 85.3173 443.584 81.7867 441.57 79.2648C439.557 76.7434 436.873 75.3982 433.35 75.3982C430.833 75.3982 428.653 75.9026 426.639 77.0793C424.794 78.256 423.284 79.7691 422.11 81.9551C420.936 83.9721 420.432 86.494 420.432 89.016V125.33H403.824ZM469.754 125.33V35.8899H486.53V70.0185C488.879 66.9922 491.563 64.6382 494.919 62.7892C498.274 61.1081 501.965 60.0993 506.159 60.0993C510.353 60.0993 514.211 60.9396 517.734 62.6212C521.257 64.3023 524.277 66.6558 526.96 69.682C529.647 72.7083 531.658 76.239 533.169 80.1056C534.681 84.1406 535.347 88.5116 535.347 93.2189C535.347 97.9263 534.513 102.466 533.001 106.5C531.49 110.535 529.312 114.066 526.624 117.26C523.941 120.287 520.754 122.808 517.063 124.49C513.372 126.171 509.514 127.011 505.152 127.011C500.958 127.011 497.267 126.171 493.912 124.321C490.557 122.64 487.873 120.118 485.692 116.924L485.188 125.162L469.754 125.33ZM502.3 112.048C505.32 112.048 508.004 111.208 510.52 109.695C512.869 108.013 514.714 105.828 516.224 103.138C517.566 100.448 518.238 97.254 518.238 93.7233C518.238 90.1927 517.566 86.9984 516.224 84.3086C514.882 81.6187 512.869 79.4332 510.52 77.7521C508.172 76.0705 505.32 75.3982 502.3 75.3982C499.28 75.3982 496.596 76.239 494.08 77.7521C491.731 79.4332 489.886 81.6187 488.376 84.3086C486.866 86.9984 486.363 90.1927 486.363 93.7233C486.363 97.254 487.034 100.448 488.376 103.138C489.718 105.828 491.731 108.013 494.08 109.695C496.596 111.208 499.113 112.048 502.3 112.048Z" fill="#FF5656"/>
</svg>
