<svg width="19" height="21" viewBox="0 0 19 21" fill="none" xmlns="http://www.w3.org/2000/svg">
<path d="M16.828 1.97813C16.1141 1.97813 15.5165 1.97813 14.8109 1.97813V1.08899C14.8109 0.488539 14.3224 0 13.7219 0H10.8593C10.2588 0 9.77028 0.488539 9.77028 1.08899V1.97813C9.06499 1.97813 8.46724 1.97813 7.7533 1.97813C6.89148 1.97813 6.19287 2.67674 6.19287 3.53856V6.50074H7.52929C7.9549 6.50074 8.35161 6.62538 8.68594 6.83944V4.42436C8.68594 4.11809 8.9343 3.86983 9.24048 3.86983C9.54674 3.86983 9.79501 4.11809 9.79501 4.42436V8.81786H10.6353C11.0276 8.81786 11.4001 8.90365 11.7361 9.05637V4.42436C11.7361 4.11809 11.9844 3.86983 12.2906 3.86983C12.5969 3.86983 12.8451 4.11809 12.8451 4.42436V9.99152C13.1351 10.4185 13.3048 10.9336 13.3048 11.4875V18.537C13.3048 19.1194 13.1169 19.6583 12.7993 20.0976H14.1082V20.4412C14.1082 20.7498 14.3584 21 14.667 21H16.0706C16.3792 21 16.6294 20.7498 16.6294 20.4412V20.0976H16.828C17.6898 20.0976 18.3884 19.399 18.3884 18.5371V3.53865C18.3885 2.67683 17.6898 1.97813 16.828 1.97813ZM13.7018 1.97813H10.8794V1.10916H13.7018V1.97813ZM15.8029 17.8514C15.8029 18.1576 15.5546 18.4059 15.2484 18.4059C14.9421 18.4059 14.6939 18.1576 14.6939 17.8514V4.42436C14.6939 4.11809 14.9421 3.86983 15.2484 3.86983C15.5547 3.86983 15.8029 4.11809 15.8029 4.42436V17.8514Z" fill="#3C3C43" fill-opacity="0.6"/>
<path d="M10.6351 9.90492H8.61803V8.65271C8.61803 8.05226 8.12949 7.56372 7.52904 7.56372H4.6664C4.06595 7.56372 3.57741 8.05226 3.57741 8.65271V9.90492H1.56042C0.698603 9.90492 0 10.6256 0 11.4875V18.537C0 19.3988 0.698603 20.0974 1.56042 20.0974H1.75896V20.441C1.75896 20.7496 2.00918 20.9999 2.31777 20.9999H3.72139C4.02998 20.9999 4.2802 20.7496 4.2802 20.441V20.0974H7.91543V20.441C7.91543 20.7496 8.16564 20.9999 8.47423 20.9999H8.51048H9.87785C10.1864 20.9999 10.4367 20.7496 10.4367 20.441V20.0974H10.6352C11.497 20.0974 12.1956 19.3988 12.1956 18.537V11.4875C12.1955 10.6257 11.4969 9.90492 10.6351 9.90492ZM3.01944 15.4279C2.38256 15.4279 1.86632 14.9117 1.86632 14.2748C1.86632 13.6379 2.38256 13.1217 3.01944 13.1217C3.65633 13.1217 4.17256 13.6379 4.17256 14.2748C4.17256 14.9117 3.65633 15.4279 3.01944 15.4279ZM4.68648 8.67288H7.50887V9.90492H4.68648V8.67288ZM6.9126 16.3104C6.35045 16.3104 5.89481 15.8547 5.89481 15.2926C5.89481 14.7305 6.35045 14.2748 6.9126 14.2748C7.47476 14.2748 7.93039 14.7305 7.93039 15.2926C7.93039 15.8548 7.47476 16.3104 6.9126 16.3104ZM10.4366 13.8188C10.4366 14.0706 10.2325 14.2747 9.98066 14.2747H8.77976C8.41837 13.6144 7.71698 13.1656 6.91269 13.1656V12.6199C6.91269 12.3681 7.11681 12.1639 7.36861 12.1639H9.98066C10.2325 12.1639 10.4366 12.3681 10.4366 12.6199V13.8188Z" fill="#3C3C43" fill-opacity="0.6"/>
</svg>
