<svg width="516" height="99" viewBox="0 0 516 99" fill="none" xmlns="http://www.w3.org/2000/svg">
<g clip-path="url(#clip0_1354_7387)">
<path fill-rule="evenodd" clip-rule="evenodd" d="M0 99H98.8078V0H0V99ZM104.298 99H203.106V0H104.298V99ZM307.404 99H208.596V0H307.404V99ZM312.894 99H411.702V0H312.894V99ZM516 99H417.192V0H516V99Z" fill="#FF690F"/>
<path fill-rule="evenodd" clip-rule="evenodd" d="M42.4649 47.6396V24.75H30.4648V74.25H42.4649V51.3645L55.1007 74.25H68.3434L54.5971 49.5L68.3434 24.75H55.1007L42.4649 47.6396ZM144.777 67.1261L142.631 74.25H129.818L146.111 24.75H161.368L177.591 74.25H164.406L162.259 67.1261H144.777ZM153.516 38.9235L147.737 57.4035H159.296L153.516 38.9235ZM264.11 74.25H252.114V52.4288L235.891 24.75H250.186L258.186 39.963L266.037 24.75H280.11L264.11 52.4288V74.25ZM353.373 67.1261L351.227 74.25H338.409L354.707 24.75H369.964L386.187 74.25H373.002L370.856 67.1261H353.373ZM362.112 38.9235L356.333 57.4035H367.892L362.112 38.9235ZM459.657 47.6396V24.75H447.657V74.25H459.657V51.3645L472.293 74.25H485.536L471.789 49.5L485.536 24.75H472.293L459.657 47.6396Z" fill="#FAFAFC"/>
</g>
<defs>
<clipPath id="clip0_1354_7387">
<rect width="516" height="99" fill="white"/>
</clipPath>
</defs>
</svg>
