<svg width="568" height="160" viewBox="0 0 568 160" fill="none" xmlns="http://www.w3.org/2000/svg">
<path fill-rule="evenodd" clip-rule="evenodd" d="M553.553 64.6107C559.959 64.6107 565.153 59.4172 565.153 53.0107C565.153 46.6042 559.959 41.4107 553.553 41.4107C547.146 41.4107 541.953 46.6042 541.953 53.0107C541.953 59.4172 547.146 64.6107 553.553 64.6107ZM553.553 67.0107C561.285 67.0107 567.553 60.7426 567.553 53.0107C567.553 45.2787 561.285 39.0107 553.553 39.0107C545.821 39.0107 539.553 45.2787 539.553 53.0107C539.553 60.7426 545.821 67.0107 553.553 67.0107Z" fill="#1882FF"/>
<path d="M560.007 60.0414H557.167L555.296 56.2865C554.927 55.5628 554.449 55.0166 553.221 55.0166H551.268V60.0414H548.715V45.9775H554.04C557.289 45.9775 559.351 47.3839 559.351 50.3605C559.351 52.4087 558.245 53.7331 556.757 54.4158C557.235 54.6753 557.535 55.1395 557.808 55.6583L560.007 60.0414ZM553.985 52.8046C555.651 52.8046 556.798 52.1356 556.798 50.4288C556.798 48.8449 555.692 48.2032 553.985 48.2032H551.295V52.8046H553.985Z" fill="#1882FF"/>
<path d="M261.208 91.3465C261.241 95.3564 260.81 99.3333 260.391 103.322C259.673 109.452 258.734 115.561 258.303 121.725C258.06 125.128 246.571 124.299 246.825 120.897C247.289 114.611 248.195 108.37 248.946 102.106C249.333 98.4495 249.719 94.782 249.697 91.1035C246.56 95.3675 243.821 99.8966 241.213 104.504C237.822 110.734 234.806 117.13 231.813 123.559C228.764 128.132 229.46 128.773 220.236 124.675C219.253 124.244 219.717 122.576 219.65 121.504C219.606 120.786 219.772 120.057 219.893 119.339C220.181 117.638 220.877 114.976 221.263 113.374C223.826 103.62 226.278 93.843 228.488 84.0115C230.995 72.4124 234.475 56.8587 236.242 45.1381C237.093 39.6258 237.844 34.1025 238.761 28.6012C239.501 25.2651 250.736 27.7616 249.996 31.0977C249.178 36.356 248.427 41.6253 247.621 46.8945C245.908 58.2727 242.506 73.495 240.098 84.7405C240.827 83.7353 241.556 82.7301 242.318 81.7469C244.826 78.7201 248.074 75.4503 252.459 75.9805C253.884 76.1462 255.32 76.6875 256.491 77.516C257.673 78.3556 258.347 79.7364 259.275 80.8411C259.684 81.9347 260.203 82.9952 260.501 84.133C261.075 86.3865 261.186 89.0267 261.208 91.3465Z" fill="#1882FF"/>
<path d="M319.634 73.6396C317.734 78.1577 316.53 82.9519 315.238 87.6689C312.741 97.4563 310.885 107.365 309.405 117.351C308.544 124.001 308.919 120.698 308.267 127.282C307.925 130.684 296.48 129.547 296.812 126.144C297.508 119.152 297.11 122.653 298.016 115.672C298.325 113.573 298.668 111.474 299.01 109.375C295.111 113.032 290.791 116.522 285.909 118.456C284.705 118.931 283.423 119.174 282.186 119.527C281.059 119.571 279.921 119.748 278.795 119.66C275.05 119.395 271.371 117.373 269.295 114.236C268.753 113.418 268.378 112.501 267.925 111.629C267.704 110.789 267.417 109.972 267.273 109.121C266.5 104.581 268.013 100.074 269.582 95.8766C270.068 94.8051 270.499 93.7114 271.018 92.6509C274.056 86.5752 278.342 81.1844 283.434 76.6995C284.495 75.8489 285.511 74.9431 286.616 74.1588C290.814 71.1651 295.177 69.486 300.347 69.9389C301.087 70.0604 301.838 70.1267 302.567 70.2924C304.423 70.7122 306.135 71.5296 307.704 72.568C308.201 71.1872 308.731 69.8284 309.328 68.4918C310.874 65.4429 321.17 70.5907 319.634 73.6396ZM304.047 85.0177C303.727 84.8188 303.473 84.5648 303.363 84.2113C303.075 83.6037 302.611 83.1287 302.103 82.6979C301.209 81.8141 300.104 81.3833 298.856 81.3502C295.508 81.2728 293.122 83.6147 290.703 85.6363C285.931 89.834 282.617 94.7167 280.12 100.516C279.502 102.714 277.723 106.028 278.96 108.304C279.027 108.293 279.093 108.282 279.159 108.282C279.27 108.348 279.358 108.469 279.491 108.469C279.557 108.469 279.524 108.315 279.59 108.304C279.734 108.271 279.877 108.348 280.021 108.348C280.606 108.337 280.595 108.282 281.17 108.072C286.229 105.829 290.272 101.985 294.128 98.1191C297.066 95.0481 299.518 91.5573 301.429 87.7572C301.783 87.0613 302.611 86.8183 303.628 86.8625C303.749 86.2439 303.893 85.6252 304.047 85.0177Z" fill="#1882FF"/>
<path d="M360.639 81.5596L359.8 85.7132C359.502 87.2155 358.375 88.3975 356.894 88.8173C343.926 92.54 334.205 109.696 331.874 123.836C331.321 127.205 319.999 125.614 320.474 122.223C321.291 116.456 329.355 74.6002 331.178 69.2094C332.68 66.1384 343.02 71.1868 341.517 74.2578C340.567 78.3671 340.092 80.9521 339.308 85.1277C342.423 80.002 351.073 77.1962 356.298 76.677C359.004 76.4119 361.181 78.8863 360.639 81.5596Z" fill="#1882FF"/>
<path d="M397.79 117.495C395.393 119.163 392.962 120.765 390.289 121.969C383.661 124.962 376.713 127.525 369.322 127.393C366.041 126.995 364.561 127.083 361.512 125.592C357.756 123.769 354.939 120.522 353.791 116.49C353.426 115.197 353.426 113.816 353.238 112.48C353.36 111.276 353.382 110.06 353.592 108.867C354.476 103.697 356.729 98.7156 359.402 94.1202C359.369 93.6342 359.325 93.1591 359.336 92.6731C359.336 91.6789 360.286 90.9608 361.623 90.519C361.844 90.1765 362.065 89.823 362.286 89.4916C363.302 88.166 364.263 86.7962 365.346 85.5259C369.455 80.6543 374.481 76.1804 380.369 73.5844C381.728 72.9879 383.164 72.6123 384.556 72.1152C386.091 71.9495 387.627 71.4965 389.173 71.607C394.188 71.9605 397.889 75.0646 399.568 79.6601C399.9 80.5549 400.032 81.5159 400.264 82.4549C400.308 83.3276 400.419 84.1892 400.397 85.0619C400.242 89.5027 398.298 93.5568 395.812 97.147C392.487 101.378 388.842 104.813 383.992 107.277C379.253 109.442 374.702 110.889 369.521 109.276C368.704 108.912 367.853 108.613 367.069 108.171C366.826 108.039 366.616 107.884 366.384 107.741C365.942 109.055 365.6 110.392 365.412 111.728C365.323 112.281 365.379 112.855 365.368 113.419C365.489 113.695 365.566 113.993 365.732 114.236C366.516 115.385 369.344 115.286 370.482 115.319C375.685 115.054 380.601 113.065 385.285 110.933C387.24 110.016 389.041 108.878 390.775 107.608C393.702 105.498 400.728 115.407 397.79 117.495ZM374.304 93.7115C373.564 94.6062 372.901 95.5563 372.217 96.4842C372.371 96.9702 373.774 98.561 373.84 97.9092C375.586 97.8982 377.287 97.0144 378.833 96.2633C381.805 94.6836 384.191 92.3969 386.191 89.7236C387.395 87.8346 388.643 85.7247 388.157 83.427C388.035 83.2613 387.185 82.3334 387.306 83.0956C387.34 83.2834 387.594 83.4822 387.483 83.6369C387.306 83.902 386.931 83.9351 386.655 84.0788C381.706 86.023 377.663 89.6573 374.304 93.7115Z" fill="#1882FF"/>
<path d="M459.806 46.6519C459.773 46.6077 459.751 46.5745 459.718 46.5303C456.415 45.5472 452.891 45.9117 449.488 45.746C443.192 45.8123 436.884 45.967 430.609 46.5303C430.344 49.6897 429.958 52.8491 429.56 55.9974C428.29 66.1714 426.522 76.2791 424.733 86.3869C423.12 95.2905 421.463 104.194 419.861 113.109C419.276 116.324 418.767 119.549 418.315 122.797C417.851 126.177 406.439 124.598 406.914 121.217C407.389 117.826 407.909 114.446 408.527 111.076C410.129 102.173 411.786 93.28 413.388 84.3764C415.144 74.4675 416.878 64.5475 418.127 54.5503C418.414 52.2967 418.701 50.0432 418.933 47.7786C414.062 48.3531 409.201 49.0158 404.407 50.0101C400.562 50.8054 396.674 51.5345 393.029 53.0369C389.825 54.241 385.782 43.4594 388.986 42.2553C393.183 40.532 397.657 39.6482 402.087 38.7314C410.074 37.0744 418.204 36.2459 426.301 35.3621C433.957 34.4674 441.667 34.3017 449.367 34.2243C453.83 34.1912 458.27 34.3127 462.623 35.3732C463.219 35.6051 463.816 35.8482 464.412 36.0802C467.55 37.461 462.943 48.0106 459.806 46.6519Z" fill="#1882FF"/>
<path d="M469.704 81.5596L468.864 85.7132C468.566 87.2155 467.439 88.3975 465.959 88.8173C452.99 92.54 443.269 109.696 440.938 123.836C440.386 127.205 429.063 125.614 429.538 122.223C430.355 116.456 438.419 74.6002 440.242 69.2094C441.744 66.1384 452.084 71.1868 450.582 74.2578C449.632 78.3671 449.157 80.9521 448.372 85.1277C451.488 80.002 460.137 77.1962 465.362 76.677C468.069 76.4119 470.245 78.8863 469.704 81.5596Z" fill="#1882FF"/>
<path d="M487.413 72.7995C487.07 77.1851 486.319 81.5264 485.512 85.8457C484.286 92.5289 482.983 99.1901 481.569 105.83C480.84 109.497 479.834 113.142 479.691 116.887C479.503 120.301 468.003 119.66 468.202 116.247C468.258 115.385 468.28 114.523 468.368 113.673C468.732 110.226 469.66 106.846 470.312 103.443C471.704 96.8924 472.985 90.3306 474.19 83.7468C474.863 80.1124 475.449 76.467 475.891 72.7995C475.902 69.3861 487.413 69.3861 487.413 72.7995ZM493.809 34.357C493.698 38.2675 493.102 42.167 492.483 46.0334C491.897 49.7451 491.19 53.4457 490.495 57.1463C489.865 60.5045 478.553 58.3836 479.183 55.0254C479.857 51.4241 480.541 47.8229 481.116 44.2106C481.646 40.9518 482.154 37.66 482.298 34.368C482.298 30.9325 493.809 30.9325 493.809 34.357Z" fill="#1882FF"/>
<path d="M537.675 88.4308C537.079 89.6239 536.361 90.7617 535.709 91.9327C530.926 99.4002 524.441 104.647 517.217 109.585C512.301 112.501 507.087 115.705 501.497 117.185C500.978 117.318 500.448 117.428 499.917 117.528C498.437 127.028 497.023 136.55 496.073 146.128C495.72 149.895 495.543 153.672 495.366 157.439C495.212 160.853 483.712 160.345 483.867 156.931C484.043 152.943 484.242 148.956 484.618 144.979C485.733 133.822 487.413 122.742 489.169 111.673C491.058 100.759 493.013 89.8669 495.09 78.9859C496.095 73.8823 497.112 68.7787 498.515 63.7635C499.498 60.4937 510.522 63.7967 509.539 67.0665C508.744 69.9386 508.092 72.8329 507.484 75.7492C509.097 72.9544 510.92 70.3032 513.052 67.8398C516.012 64.9345 519.57 62.4379 523.701 61.5542C524.574 61.3664 525.457 61.3222 526.341 61.2118C530.903 61.1234 535.598 62.5705 538.316 66.5252C539.023 67.5415 539.443 68.7235 540.017 69.8172C540.282 71.0212 540.68 72.2032 540.823 73.4405C541.442 78.6214 539.962 83.8354 537.675 88.4308ZM529.445 74.3794C529.799 73.1532 528.429 72.7003 527.457 72.6782C525.225 72.5899 523.314 74.048 521.702 75.4509C519.006 78.4336 517.062 81.9464 515.328 85.5587C513.008 90.6512 510.887 95.8321 508.965 101.09C509.55 100.748 510.147 100.394 510.732 100.063C516.399 96.2298 521.867 91.9879 525.712 86.2215C527.832 82.5761 529.865 78.7429 529.445 74.3794Z" fill="#1882FF"/>
<path d="M220.711 83.6915L220.402 83.1281C217.96 78.7536 214.492 75.6495 210.073 73.8931C207.996 72.7442 203.644 71.6616 189.537 71.7058H189.438C179.197 72.0262 176.292 70.2366 175.95 69.386C175.961 69.2093 175.983 68.8779 176.038 68.2813C176.657 65.4644 178.667 61.9516 182.003 57.8312C188.742 51.1589 191.956 48.7397 193.481 47.8891L193.746 47.7234C201.004 42.7745 207.256 39.4826 212.36 37.9139L212.349 37.9471C211.719 39.7587 209.487 43.603 202.484 51.6119C199.004 54.5834 197.358 56.1631 197.745 58.5713C198.176 61.2556 200.252 64.0725 204.793 63.8626L205.654 63.7522C207.245 63.4981 209.134 62.4929 213.133 58.4498L213.354 58.1957C225.395 43.5146 226.345 37.9581 225.826 34.7656L225.505 32.7551L225.229 32.2249C224.754 31.3191 223.981 29.8609 222.81 28.8667C220.678 25.873 215.254 25.873 212.415 25.873H211.929L211.454 26.0056C206.184 27.4527 202.506 28.8446 200.241 30.2807C195.767 32.1365 189.868 35.7267 182.235 41.239L182.036 41.3936C168.548 52.584 162.616 61.9295 163.909 69.9494C164.273 72.1919 165.422 74.4344 167.322 76.6106C170.106 79.9135 174.922 81.9571 182.058 82.8409L182.401 82.863C188.311 83.0397 194.21 83.095 199.932 83.0176C205.058 83.3269 208.195 84.4758 209.278 86.42L209.498 87.7898C209.498 87.8009 209.565 88.784 207.919 91.4242C205.378 94.8487 202.771 97.3894 200.175 98.9912L192.962 104.018C185.306 108.569 175.287 113.231 163.235 117.859C156.662 120.279 154.729 121.604 153.757 122.952L152.873 124.178L153.414 127.514L154.574 128.398C156.088 129.547 157.767 130.143 159.479 130.143C159.877 130.143 160.285 130.11 160.683 130.044L161.556 129.9L162.473 129.657C162.76 129.668 163.058 129.657 163.345 129.613L163.677 129.558L172.359 126.399L172.481 126.354C207.786 112.049 223.329 99.7865 221.396 87.7898L220.711 83.6915Z" fill="#1882FF"/>
<path d="M13.9804 112.347C11.054 112.907 9.3851 113.376 8.40201 113.788C3.04073 103.703 0 92.2115 0 80.0114C0 40.2554 32.2248 8 71.9943 8C101.201 8 126.327 25.4026 137.621 50.3745L136.101 50.546L92.5249 42.4964C92.2277 42.4278 91.9304 42.5536 91.7132 42.7823C91.5075 43.0109 91.4275 43.3082 91.5189 43.6055L93.8166 51.6894C93.9195 52.0781 94.2739 52.3182 94.6625 52.3411L119.583 52.4783L115.022 53.0043C114.999 53.0043 114.987 53.0272 114.987 53.0272L93.3822 56.5831C79.6533 59.4188 70.8397 60.9624 67.1131 61.1567C67.4675 60.5965 67.7304 60.0819 67.959 59.5903C68.5534 59.1329 69.3079 58.6413 70.2339 58.0696C73.0231 57.3835 73.4461 55.5769 73.4461 54.5593V54.0677C73.4461 53.3816 73.1603 52.6841 72.6344 52.0095L72.463 51.8037C72.3029 51.5979 72.04 51.4721 71.7771 51.4721H71.4913C70.4968 51.4721 69.4223 51.6436 68.1305 52.0667C67.7076 52.2611 67.3189 52.4554 66.9417 52.6498C66.13 51.5293 64.2096 50.7861 60.7002 50.2258C60.6316 50.2029 60.4715 50.2029 60.403 50.2258C56.322 50.6603 53.4984 51.2549 51.9552 51.9752C48.5487 52.7413 43.6447 54.7423 37.346 57.9209C26.4749 64.3354 21.1936 70.1782 21.1936 75.7694C21.1936 77.2215 21.6966 78.7994 22.714 80.4116C24.2 82.9042 27.3093 84.8137 32.2705 86.2544C36.6144 87.1005 40.9812 87.8323 45.1422 88.4497C49.7833 89.4673 52.3667 91.1482 52.824 93.435C52.7668 93.5379 52.7326 93.6637 52.7326 93.8009V94.384C52.7326 94.7384 52.5382 95.7675 50.8235 97.7113C48.4001 100.078 45.9995 101.782 43.6561 102.742L37.8833 105.532C31.6189 108.048 23.5484 110.323 13.9804 112.347ZM139.165 54.0791C138.399 54.7079 136.638 55.3825 132.832 56.4688C132.797 56.4688 132.672 56.5031 132.637 56.5031C129.917 56.869 127.185 57.2578 124.452 57.6808L97.7833 65.4445C94.9598 71.596 92.5363 77.1301 90.593 81.8981L90.4329 82.1839C90.2729 82.424 89.5413 83.8647 85.4832 93.8809C84.2715 96.3849 83.357 98.5345 82.7168 100.261C82.5796 100.661 82.0538 101.908 79.5618 107.556L75.5494 116.863C75.5151 116.92 75.4808 116.989 75.4465 117.035C73.6633 119.39 72.7488 119.802 72.0286 119.893C71.9714 119.905 71.8914 119.905 71.8228 119.905C71.6856 119.905 71.537 119.893 71.457 119.848C70.2682 119.39 69.7194 118.773 69.7194 117.95C69.7194 115.514 71.6971 109.9 75.9266 100.284C80.0419 90.4964 84.8545 78.8566 90.2043 65.6503C90.2272 65.616 90.2729 65.5131 90.2958 65.4788C90.6501 64.8499 90.9816 64.1639 91.2903 63.4435C80.4077 65.4788 73.8576 66.6222 71.8114 66.828L68.3363 67.3197C68.0505 67.3197 67.8104 67.2854 67.6161 67.2168L66.21 67.3197C64.724 67.3197 63.5809 67.0567 62.6321 66.6336C61.066 68.2687 59.2141 70.0181 57.0079 71.9847C53.5556 74.5231 52.2867 74.8547 51.498 74.8547H51.1665C48.8574 74.5917 47.5427 73.2768 47.5427 71.3444C47.5427 70.4183 48.0686 69.8009 51.3951 67.7885C55.6247 64.2782 57.9909 61.8999 59.317 60.2992C59.6485 58.9271 60.3458 57.6694 61.4203 56.4917C61.2831 56.4574 61.1231 56.4573 60.986 56.4002C56.6764 56.6746 50.9721 58.4698 44.0676 61.717C42.09 62.4488 38.6835 64.5526 33.8823 67.9828C30.7616 70.7842 28.7154 73.3683 27.8695 75.6322C27.698 76.3297 27.6408 76.6155 27.6294 76.7184C27.6294 78.7308 31.5732 80.4345 38.4434 81.3264C49.2803 83.0072 51.8866 84.3564 52.904 85.2139C55.659 86.7918 57.7052 89.3187 58.9169 92.6003L58.9855 92.9547L59.0083 95.7561C59.0083 104.16 46.3882 110.975 19.2731 117.183L12.6316 118.464C12.5744 118.487 12.4715 118.487 12.4258 118.487C12.2315 118.487 12.0372 118.453 11.8657 118.395L11.2484 118.464H11.1455C23.9143 138.611 46.3882 152 72.0057 152C91.8847 152 109.878 143.928 122.921 130.904C135.93 117.869 144 99.8609 144 79.9771C143.989 70.8642 142.285 62.1172 139.165 54.0791Z" fill="#1882FF"/>
</svg>
